HIERARCHY
ROOT Hips
{
	OFFSET -0.001795 -0.223333 0.028219
	CHANNELS 6 Xposition Yposition Zposition Zrotation Yrotation Xrotation 
	JOINT LeftUpLeg
	{
		OFFSET 0.069520 -0.091406 -0.006815
		CHANNELS 3 Zrotation Yrotation Xrotation
		JOINT LeftLeg
		{
			OFFSET 0.034277 -0.375199 -0.004496
			CHANNELS 3 Zrotation Yrotation Xrotation
			JOINT LeftFoot
			{
				OFFSET -0.013596 -0.397961 -0.043693
				CHANNELS 3 Zrotation Yrotation Xrotation
				JOINT LeftToe
				{
					OFFSET 0.026358 -0.055791 0.119288
					CHANNELS 3 Zrotation Yrotation Xrotation
					End Site
					{
						OFFSET 0.000000 0.000000 0.000000
					}
				}
			}
		}
	}
	JOINT RightUpLeg
	{
		OFFSET -0.067670 -0.090522 -0.004320
		CHANNELS 3 Zrotation Yrotation Xrotation
		JOINT RightLeg
		{
			OFFSET -0.038290 -0.382569 -0.008850
			CHANNELS 3 Zrotation Yrotation Xrotation
			JOINT RightFoot
			{
				OFFSET 0.015774 -0.398415 -0.042312
				CHANNELS 3 Zrotation Yrotation Xrotation
				JOINT RightToe
				{
					OFFSET -0.025372 -0.048144 0.123348
					CHANNELS 3 Zrotation Yrotation Xrotation
					End Site
					{
						OFFSET 0.000000 0.000000 0.000000
					}
				}
			}
		}
	}
	JOINT Spine
	{
		OFFSET -0.002533 0.108963 -0.026696
		CHANNELS 3 Zrotation Yrotation Xrotation
		JOINT Spine1
		{
			OFFSET 0.005487 0.135180 0.001092
			CHANNELS 3 Zrotation Yrotation Xrotation
			JOINT Spine2
			{
				OFFSET 0.001457 0.052922 0.025425
				CHANNELS 3 Zrotation Yrotation Xrotation
				JOINT Neck
				{
					OFFSET -0.002778 0.213870 -0.042857
					CHANNELS 3 Zrotation Yrotation Xrotation
					JOINT Head
					{
						OFFSET 0.005152 0.064970 0.051349
						CHANNELS 3 Zrotation Yrotation Xrotation
						End Site
						{
							OFFSET 0.000000 0.000000 0.000000
						}
					}
				}
				JOINT LeftShoulder
				{
					OFFSET 0.078845 0.121749 -0.034090
					CHANNELS 3 Zrotation Yrotation Xrotation
					JOINT LeftArm
					{
						OFFSET 0.090977 0.030469 -0.008868
						CHANNELS 3 Zrotation Yrotation Xrotation
						JOINT LeftForeArm
						{
							OFFSET 0.259612 -0.012772 -0.027456
							CHANNELS 3 Zrotation Yrotation Xrotation
							JOINT LeftHand
							{
								OFFSET 0.249234 0.008986 -0.001171
								CHANNELS 3 Zrotation Yrotation Xrotation
								End Site
								{
									OFFSET 0.000000 0.000000 0.000000
								}
							}
						}
					}
				}
				JOINT RightShoulder
				{
					OFFSET -0.081759 0.118833 -0.038615
					CHANNELS 3 Zrotation Yrotation Xrotation
					JOINT RightArm
					{
						OFFSET -0.096012 0.032551 -0.009143
						CHANNELS 3 Zrotation Yrotation Xrotation
						JOINT RightForeArm
						{
							OFFSET -0.253742 -0.013329 -0.021401
							CHANNELS 3 Zrotation Yrotation Xrotation
							JOINT RightHand
							{
								OFFSET -0.255298 0.007772 -0.005559
								CHANNELS 3 Zrotation Yrotation Xrotation
								End Site
								{
									OFFSET 0.000000 0.000000 0.000000
								}
							}
						}
					}
				}
			}
		}
	}
}
MOTION
Frames: 7
Frame Time: 0.050000
0.000000 0.941262 0.000000 -0.723649 -1.353488 7.910445 6.046577 -0.358291 -4.717400 0.643169 0.150639 -5.518320 2.574375 8.146951 9.864633 0.000000 0.000000 0.000000 -4.515526 0.572477 -5.976539 -2.203874 0.016349 -3.467831 -0.915951 -6.365825 10.320028 0.000000 0.000000 0.000000 5.214915 0.412789 -6.794732 -2.159867 1.015312 -4.575949 -3.704397 4.426578 4.366922 6.654068 -3.157584 -11.613096 0.000000 0.000000 0.000000 -14.402580 -1.029374 -1.689189 -57.322163 -5.975005 -3.925559 -8.880927 -15.142948 1.615699 0.000000 0.000000 0.000000 12.699636 -6.025231 -3.376128 64.329531 4.214209 -3.507232 8.760120 19.181709 2.100256 0.000000 0.000000 0.000000 
0.000251 0.940665 0.000067 -0.907712 -2.191746 8.516796 5.792370 -0.344739 -4.320459 1.438821 0.153687 -6.576090 2.978114 8.739222 9.812268 0.000000 0.000000 0.000000 -4.396949 0.637691 -6.787009 -2.490577 0.053562 -3.113904 -0.143446 -5.148641 10.892557 0.000000 0.000000 0.000000 6.258435 0.466036 -7.101369 -2.840573 1.288082 -4.884375 -4.374475 5.195858 3.657492 7.178029 -3.418562 -11.798234 0.000000 0.000000 0.000000 -15.436436 -0.651793 -2.131304 -55.869960 -5.948060 -3.708110 -9.598386 -14.808661 1.653094 0.000000 0.000000 0.000000 12.393969 -7.095086 -3.814088 65.303003 3.014541 -4.063727 9.141065 18.921989 2.132410 0.000000 0.000000 0.000000 
0.000350 0.940649 -0.000032 -0.576290 -1.805751 8.190328 5.478489 -0.354432 -4.481822 1.402576 0.094195 -5.300855 2.655515 8.004828 8.826173 0.000000 0.000000 0.000000 -4.507277 0.617656 -6.604115 -2.946671 0.090302 -3.089491 -0.678751 -6.131510 10.849584 0.000000 0.000000 0.000000 5.674103 0.412401 -6.681512 -2.318118 1.073519 -5.631845 -4.698716 4.665389 3.710077 6.690529 -3.326673 -10.621392 0.000000 0.000000 0.000000 -15.388145 -1.050971 -1.877434 -55.711054 -5.333590 -3.998794 -9.242652 -14.469364 1.580346 0.000000 0.000000 0.000000 13.588306 -5.890739 -3.386748 63.773389 2.713220 -4.266722 9.009709 19.134823 2.129321 0.000000 0.000000 0.000000 
0.000324 0.940600 -0.000090 -0.666292 -1.707049 8.484567 5.792515 -0.367913 -4.772587 1.076814 0.122531 -5.473643 2.687146 8.122248 9.068726 0.000000 0.000000 0.000000 -4.438312 0.657808 -7.189243 -3.127679 0.106783 -3.040791 -0.721750 -6.371856 11.377397 0.000000 0.000000 0.000000 5.679794 0.413061 -6.756740 -2.518014 1.158279 -5.081919 -4.343051 4.020567 2.191334 7.197362 -3.891422 -9.408987 0.000000 0.000000 0.000000 -15.062636 -0.533195 -1.998293 -56.364744 -5.637632 -3.769499 -8.434127 -13.877442 1.424393 0.000000 0.000000 0.000000 12.086880 -5.946665 -3.371605 64.166421 2.149953 -4.417736 10.383647 19.310670 2.326527 0.000000 0.000000 0.000000 
0.000136 0.941110 -0.000231 -0.646714 -1.020283 8.417691 5.762952 -0.382541 -4.951541 1.122384 0.114783 -5.348524 2.377232 7.676428 9.180469 0.000000 0.000000 0.000000 -4.369671 0.636189 -6.934203 -3.368914 0.106006 -3.362433 -0.888097 -6.649278 11.538949 0.000000 0.000000 0.000000 5.241326 0.391305 -6.687119 -1.978002 0.941913 -4.953647 -4.457346 3.526993 2.035506 7.352868 -4.000677 -9.390112 0.000000 0.000000 0.000000 -14.922341 -0.737282 -1.869839 -56.400908 -6.057689 -3.560584 -8.897357 -13.874068 1.479387 0.000000 0.000000 0.000000 11.980824 -6.006590 -3.400794 63.748330 2.065944 -4.424797 10.716775 19.142879 2.350204 0.000000 0.000000 0.000000 
-0.000028 0.941493 -0.000308 -0.732888 -1.154016 8.466937 5.949390 -0.379871 -4.982071 1.003535 0.118321 -5.268283 2.700824 8.238211 9.254264 0.000000 0.000000 0.000000 -4.240932 0.636895 -6.893542 -3.659209 0.106608 -3.629908 -0.728344 -6.477125 11.914940 0.000000 0.000000 0.000000 5.048201 0.382284 -6.617078 -1.853693 0.889192 -5.159834 -4.200281 3.550298 1.935881 8.107169 -4.552923 -9.212981 0.000000 0.000000 0.000000 -14.982994 -0.516501 -1.969494 -56.383515 -5.892556 -3.624059 -8.912535 -14.208175 1.517437 0.000000 0.000000 0.000000 11.682694 -5.873104 -3.318676 63.926943 2.020783 -4.446168 10.480946 18.847494 2.267013 0.000000 0.000000 0.000000 
-0.000157 0.941759 -0.000357 -0.834567 -0.905301 8.449626 6.045230 -0.384170 -5.046705 0.858687 0.137673 -5.509275 2.677280 8.359760 9.859170 0.000000 0.000000 0.000000 -3.957957 0.630547 -6.772027 -3.996324 0.108204 -3.941002 -0.439635 -5.913460 11.979663 0.000000 0.000000 0.000000 4.798742 0.360833 -6.455067 -1.667460 0.813850 -4.914653 -4.062554 3.154248 1.728753 8.346785 -4.630153 -9.706783 0.000000 0.000000 0.000000 -14.760801 -0.118167 -2.076352 -56.406264 -5.866911 -3.626605 -9.407385 -14.938549 1.664635 0.000000 0.000000 0.000000 11.809738 -5.750469 -3.316187 63.820518 1.906625 -4.509309 10.173946 18.673246 2.184144 0.000000 0.000000 0.000000 
